<svg width="40" height="40" viewBox="0 0 40 40" fill="none" xmlns="http://www.w3.org/2000/svg">
<path d="M20 2.5C10.335 2.5 2.5 10.335 2.5 20C2.5 29.665 10.335 37.5 20 37.5C29.665 37.5 37.5 29.665 37.5 20C37.5 10.335 29.665 2.5 20 2.5ZM0 20C0 8.95431 8.95431 0 20 0C31.0457 0 40 8.95431 40 20C40 31.0457 31.0457 40 20 40C8.95431 40 0 31.0457 0 20ZM20 16C20.6904 16 21.25 16.5596 21.25 17.25V29.75C21.25 30.4404 20.6904 31 20 31C19.3096 31 18.75 30.4404 18.75 29.75V17.25C18.75 16.5596 19.3096 16 20 16ZM20 13C21.1046 13 22 12.1046 22 11C22 9.89543 21.1046 9 20 9C18.8954 9 18 9.89543 18 11C18 12.1046 18.8954 13 20 13Z" fill="black"/>
</svg>
